<svg width="512" height="512" viewBox="0 0 512 512" xmlns="http://www.w3.org/2000/svg">
  <!-- 背景 -->
  <rect width="512" height="512" rx="100" fill="#1db954"/>
  
  <!-- 耳机 -->
  <g transform="translate(120, 110) scale(0.9)">
    <path d="M160 30 C80 30 20 90 20 170 C20 250 80 310 160 310 C240 310 300 250 300 170 C300 90 240 30 160 30 Z" 
          fill="none" 
          stroke="#ffffff" 
          stroke-width="20" 
          stroke-linecap="round" 
          stroke-linejoin="round"/>
    <path d="M160 120 C180 120 195 140 195 170 C195 200 180 220 160 220 C140 220 125 200 125 170 C125 140 140 120 160 120 Z" 
          fill="#ffffff"/>
    <path d="M160 150 C170 150 175 160 175 170 C175 180 170 190 160 190 C150 190 145 180 145 170 C145 160 150 150 160 150 Z" 
          fill="#1db954"/>
  </g>
  
  <!-- 音符 -->
  <g transform="translate(260, 280) scale(1.1)">
    <path d="M0 -80 C-50 -80 -80 -40 -80 0 C-80 40 -50 80 0 80 C50 80 80 40 80 0 C80 -40 50 -80 0 -80 Z" 
          fill="#ffffff"/>
    <path d="M-15 -20 L-15 40 L25 40 L25 20 L-5 20 L-5 -5 L25 -5 L25 -20 Z" 
          fill="#1db954"/>
  </g>
</svg>